# xmcd CD database file
# Copyright (C) 1993-1998 Ti Kan
# 
# Track frame offsets:
#     150
#     31505
#     55180
#     64515
#     88210
#     101790
#     126575
#     149828
#     165253
#     194658
#     207073
#     230353
# 
# Disc length: 3421 seconds
# 
# Revision: 1
# Processed by: cddbd v1.4b41PL1 Copyright (c) Steve Scherf et al.
# Submitted via: DiscPlay 4.0.4
# 
DISCID=aa0d5b0c
DTITLE=Lightnin' Hopkins - The Best Of Lightnin' Hopkins
DYEAR=1900
DGENRE=
TTITLE0=Big Black Cadillac Blues
TTITLE1=Early In The Mornin' Blues
TTITLE2=Coffee House Blues
TTITLE3=I've Been 'buked And Scorned
TTITLE4=Stool Pidgeon Blues
TTITLE5=Brand New Car
TTITLE6=Drinkin' In The Blues
TTITLE7=Ball Of Twine
TTITLE8=Everybody's Blue
TTITLE9=Right On That Shore
TTITLE10=Chain Gang Blues
TTITLE11=Blowin' The Fuses
EXTD=
EXTT0=
EXTT1=
EXTT2=
EXTT3=
EXTT4=
EXTT5=
EXTT6=
EXTT7=
EXTT8=
EXTT9=
EXTT10=
EXTT11=
PLAYORDER=
